<?xml version="1.0" encoding="UTF-8" standalone="no"?>
<svg
   xmlns:dc="http://purl.org/dc/elements/1.1/"
   xmlns:cc="http://creativecommons.org/ns#"
   xmlns:rdf="http://www.w3.org/1999/02/22-rdf-syntax-ns#"
   xmlns:svg="http://www.w3.org/2000/svg"
   xmlns="http://www.w3.org/2000/svg"
   xmlns:sodipodi="http://sodipodi.sourceforge.net/DTD/sodipodi-0.dtd"
   xmlns:inkscape="http://www.inkscape.org/namespaces/inkscape"
   id="Capa_1"
   data-name="Capa 1"
   viewBox="0 0 200.22 200"
   version="1.1"
   sodipodi:docname="descarga (1).svg"
   inkscape:version="0.92.4 (unknown)">
  <metadata
     id="metadata984">
    <rdf:RDF>
      <cc:Work
         rdf:about="">
        <dc:format>image/svg+xml</dc:format>
        <dc:type
           rdf:resource="http://purl.org/dc/dcmitype/StillImage" />
      </cc:Work>
    </rdf:RDF>
  </metadata>
  <sodipodi:namedview
     pagecolor="#ffffff"
     bordercolor="#666666"
     borderopacity="1"
     objecttolerance="10"
     gridtolerance="10"
     guidetolerance="10"
     inkscape:pageopacity="0"
     inkscape:pageshadow="2"
     inkscape:window-width="1920"
     inkscape:window-height="1017"
     id="namedview982"
     showgrid="false"
     showguides="false"
     inkscape:zoom="1.668772"
     inkscape:cx="-91.299694"
     inkscape:cy="64.091241"
     inkscape:window-x="0"
     inkscape:window-y="30"
     inkscape:window-maximized="1"
     inkscape:current-layer="Capa_1" />
  <defs
     id="defs954">
    <style
       id="style952">.cls-1{fill:none;}.cls-2{fill:#070308;opacity:0.4;}.cls-3{fill:#fff;}.cls-4{fill:#1c80bc;}</style>
  </defs>
  <title
     id="title956">icon</title>
  <rect
     id="_Sector_"
     data-name="&lt;Sector&gt;"
     class="cls-1"
     x="0.22"
     width="200"
     height="200" />
  <polygon
     class="cls-2"
     points="0 104.92 48.27 42.78 101.5 24.25 142.5 39.75 156.5 80.75 129.5 123.75 142.98 144.18 89.75 200 0 200 0 104.92"
     id="polygon959" />
  <circle
     class="cls-3"
     cx="109.65"
     cy="90.82"
     r="3.47"
     id="circle961" />
  <circle
     class="cls-3"
     cx="129.5"
     cy="66.45"
     r="4.6"
     id="circle963" />
  <circle
     class="cls-3"
     cx="89.64"
     cy="60.5"
     r="6.17"
     id="circle965" />
  <path
     class="cls-3"
     d="M153.87,40.2C146.39,30.84,127,15,101.57,15c-17,0-33.12,7.1-48,21.09l-.07.07C39,51.09,40.89,64.87,43.29,82.34q.22,1.61.45,3.27c.4,3-2.2,7.55-4.71,12-3.78,6.65-7.68,13.53-2.91,16.78,8.15,5.55,9.56,16.48,10.94,27.06.33,2.51.66,5.11,1.08,7.63.73,4.36,4.4,6.47,11.24,6.47a84.28,84.28,0,0,0,9.43-.74,69.21,69.21,0,0,1,7.27-.6,10.63,10.63,0,0,1,2.72.28c8.21,2.23,15.39,18.83,18,28.77a2.35,2.35,0,0,0,3.9,1.11l42.09-40.17a2.36,2.36,0,0,0,.62-2.42c-3.72-11.63,4-23,10.82-33a98,98,0,0,0,7.7-12.56C170.76,77.44,164.38,53.35,153.87,40.2ZM95.68,79.81l-1.57-2.49a17.35,17.35,0,0,1-3.53.6l-.65,2.87a1.91,1.91,0,0,1-2.29,1.44l-6-1.36a1.91,1.91,0,0,1-1.44-2.29l.65-2.87a17.35,17.35,0,0,1-2.92-2.07l-2.49,1.57a1.91,1.91,0,0,1-2.64-.6L69.51,69.4a1.91,1.91,0,0,1,.6-2.64l2.49-1.57a17.32,17.32,0,0,1-.6-3.53L69.12,61a1.91,1.91,0,0,1-1.44-2.29l1.36-6a1.91,1.91,0,0,1,2.29-1.44l2.87.65A17.31,17.31,0,0,1,76.27,49L74.7,46.51a1.91,1.91,0,0,1,.6-2.64l5.21-3.28a1.91,1.91,0,0,1,2.64.6l1.57,2.49a17.35,17.35,0,0,1,3.53-.6l.65-2.87a1.91,1.91,0,0,1,2.29-1.44l6,1.36a1.91,1.91,0,0,1,1.44,2.29L98,45.29a17.35,17.35,0,0,1,2.92,2.07l2.49-1.57a1.91,1.91,0,0,1,2.64.6l3.28,5.21a1.91,1.91,0,0,1-.6,2.64l-2.49,1.57a17.4,17.4,0,0,1,.6,3.53l2.87.65a1.91,1.91,0,0,1,1.44,2.29l-1.36,6a1.91,1.91,0,0,1-2.29,1.44l-2.87-.65A17.31,17.31,0,0,1,102.56,72l1.57,2.49a1.91,1.91,0,0,1-.6,2.64L98.32,80.4A1.91,1.91,0,0,1,95.68,79.81Zm25.17,10.86-1.6.43a9.81,9.81,0,0,1-.26,2l1.43.83a1.08,1.08,0,0,1,.39,1.47l-1.73,3a1.08,1.08,0,0,1-1.47.39L116.18,98a9.8,9.8,0,0,1-1.6,1.23l.43,1.6a1.08,1.08,0,0,1-.76,1.32l-3.35.9a1.08,1.08,0,0,1-1.32-.76l-.43-1.6a9.74,9.74,0,0,1-2-.26l-.83,1.43a1.08,1.08,0,0,1-1.47.39l-3-1.73a1.08,1.08,0,0,1-.4-1.47l.83-1.43a9.82,9.82,0,0,1-1.23-1.6l-1.6.43a1.08,1.08,0,0,1-1.32-.76l-.9-3.35A1.08,1.08,0,0,1,98,91l1.6-.43a9.82,9.82,0,0,1,.26-2l-1.43-.83A1.08,1.08,0,0,1,98,86.25l1.73-3a1.08,1.08,0,0,1,1.47-.39l1.43.83a9.81,9.81,0,0,1,1.6-1.23l-.43-1.6a1.08,1.08,0,0,1,.76-1.32l3.35-.9a1.08,1.08,0,0,1,1.32.76l.43,1.6a9.78,9.78,0,0,1,2,.26l.83-1.43a1.08,1.08,0,0,1,1.47-.39l3,1.73a1.08,1.08,0,0,1,.39,1.47l-.83,1.43a9.81,9.81,0,0,1,1.23,1.6l1.6-.43a1.08,1.08,0,0,1,1.32.76l.9,3.35A1.08,1.08,0,0,1,120.85,90.67Zm23.56-24.42-2.12.57a13,13,0,0,1-.35,2.65l1.9,1.1a1.43,1.43,0,0,1,.52,1.95l-2.3,4a1.43,1.43,0,0,1-1.95.52l-1.9-1.1a13,13,0,0,1-2.12,1.63l.57,2.12a1.43,1.43,0,0,1-1,1.75l-4.44,1.19a1.43,1.43,0,0,1-1.75-1l-.57-2.12a12.94,12.94,0,0,1-2.65-.35l-1.1,1.9a1.43,1.43,0,0,1-1.95.52l-4-2.3a1.43,1.43,0,0,1-.52-1.95l1.1-1.9a13,13,0,0,1-1.63-2.12l-2.12.57a1.43,1.43,0,0,1-1.75-1l-1.19-4.44a1.43,1.43,0,0,1,1-1.75l2.12-.57a12.92,12.92,0,0,1,.35-2.65l-1.9-1.1a1.43,1.43,0,0,1-.52-1.95l2.3-4a1.43,1.43,0,0,1,1.95-.52l1.9,1.1a13,13,0,0,1,2.12-1.63l-.57-2.12a1.43,1.43,0,0,1,1-1.75l4.44-1.19a1.43,1.43,0,0,1,1.75,1l.57,2.12a12.91,12.91,0,0,1,2.65.35l1.1-1.9a1.43,1.43,0,0,1,1.95-.52l4,2.3a1.43,1.43,0,0,1,.52,1.95l-1.1,1.9a13,13,0,0,1,1.63,2.12l2.12-.57a1.43,1.43,0,0,1,1.75,1l1.19,4.44A1.43,1.43,0,0,1,144.41,66.25Z"
     transform="translate(0.22)"
     id="path967" />
  <rect
     class="cls-4"
     x="0.22"
     width="200"
     height="200"
     id="rect969"
     style="fill:#ff9955" />
  <path
     style="opacity:0.4;fill:#070308"
     d="M -0.01,106.53 C 15.461356,86.788495 31.359089,67.463263 46.977176,47.837833 L 82.954761,64.158207 100.08,88.57 61.180776,131.31576 82.127648,159.05418 114.0194,109.7691 l 46.62379,-7.18651 13.84297,20.90341 -3.33865,-11.58291 6.6077,38.39573 L 143.74859,200 H 0.22 Z"
     id="polygon971"
     inkscape:connector-curvature="0"
     sodipodi:nodetypes="cccccccccccccc" />
  <path
     id="path1529"
     d="m 146.3565,91.600414 c -20.89396,0 -37.79815,16.904166 -37.79815,37.798146 0,20.89399 16.90419,37.79816 37.79815,37.79816 20.89397,0 37.79815,-16.90417 37.79815,-37.79816 0,-20.89398 -16.90418,-37.798146 -37.79815,-37.798146 z m 16.79917,39.451816 c 0,1.39119 -1.15494,2.54613 -2.54612,2.54613 h -15.90672 c -1.39119,0 -2.54613,-1.15494 -2.54613,-2.54613 v -20.10652 c 0,-1.39118 1.15494,-2.54612 2.54613,-2.54612 h 3.30734 c 1.39117,0 2.54611,1.15494 2.54611,2.54612 v 14.25306 h 10.05327 c 1.39118,0 2.54612,1.15494 2.54612,2.54612 z m -62.9969,-1.65367 c 0,-7.29714 1.75867,-14.20056 4.77726,-20.34275 -2.0999,-0.39373 -4.25228,-0.65622 -6.457179,-0.65622 h -4.383534 c -5.82722,2.67737 -12.310653,4.19979 -19.135317,4.19979 -6.824665,0 -13.281848,-1.52242 -19.135305,-4.19979 h -4.383546 c -19.476549,0 -35.278276,15.80173 -35.278276,35.27828 v 10.91946 c 0,6.95591 5.643486,12.59939 12.599385,12.59939 h 91.109292 c -11.89066,-8.37334 -19.71278,-22.18017 -19.71278,-37.79816 z M 74.96,100 c 18.55784,0 33.59835,-15.040516 33.59835,-33.598357 0,-18.55784 -15.04051,-33.598356 -33.59835,-33.598356 -18.55784,0 -33.598357,15.040516 -33.598357,33.598356 C 41.361643,84.959484 56.40216,100 74.96,100 Z"
     inkscape:connector-curvature="0"
     style="fill:#ffffff;stroke-width:0.26248714" />
</svg>
